<svg class="css-ze2te4 css-qd6ojx" viewBox="0 0 76.087 76.086">
  <g fill="#bea4ff" class="css-2ywl43" transform="translate(-3.798303963569463, -3.798303963569463) scale(0.9298173630599132)">
    <g xmlns="http://www.w3.org/2000/svg">
      <circle cx="45" cy="44.404" r="4.621" fill="{{COLOR}}"/>
      <g>
        <path fill="{{COLOR}}" d="M31.56,35.003c2.132,2.208,4.766,3.639,7.549,4.287c-0.549-2.804-1.886-5.487-4.018-7.695 c-2.132-2.209-4.766-3.639-7.549-4.288C28.091,30.11,29.428,32.794,31.56,35.003z"/>
        <path fill="{{COLOR}}" d="M35.003,58.439c2.208-2.131,3.639-4.766,4.287-7.549c-2.803,0.55-5.486,1.888-7.695,4.019 c-2.208,2.133-3.64,4.767-4.288,7.55C30.11,61.908,32.793,60.572,35.003,58.439z"/>
        <path fill="{{COLOR}}" d="M58.44,54.998c-2.133-2.209-4.767-3.64-7.55-4.287c0.549,2.804,1.887,5.487,4.019,7.694 c2.132,2.209,4.767,3.64,7.549,4.288C61.908,59.89,60.57,57.206,58.44,54.998z"/>
        <path fill="{{COLOR}}" d="M54.999,31.561c-2.21,2.132-3.641,4.766-4.288,7.549c2.803-0.551,5.486-1.886,7.694-4.019 c2.21-2.132,3.641-4.766,4.288-7.548C59.89,28.091,57.206,29.429,54.999,31.561z"/>
      </g>
      <g>
        <path fill="{{COLOR}}" d="M45,4.085c-20.801,27.626,0,27.927,0,27.927S65.801,31.712,45,4.085z"/>
        <path fill="{{COLOR}}" d="M45,85.914c20.8-27.625,0-27.926,0-27.926S24.199,58.289,45,85.914z"/>
      </g>
      <g>
        <path fill="{{COLOR}}" d="M4.085,45c27.626,20.801,27.927,0,27.927,0S31.711,24.199,4.085,45z"/>
        <path fill="{{COLOR}}" d="M85.915,45c-27.626-20.801-27.927,0-27.927,0S58.289,65.802,85.915,45z"/>
      </g>
    </g>
  </g>
</svg>